<mxfile host="app.diagrams.net" modified="2023-04-28T04:50:33.168Z" agent="Mozilla/5.0 (Windows NT 10.0; Win64; x64) AppleWebKit/537.36 (KHTML, like Gecko) Chrome/110.0.0.0 YaBrowser/23.3.2.806 Yowser/2.5 Safari/537.36" etag="q8ToDaELYbNRj_8Sy_ya" version="21.2.3" type="device">
  <diagram name="Страница 1" id="ShZ-u_4f5v5DBWiT-SXk">
    <mxGraphModel dx="1691" dy="888" grid="1" gridSize="10" guides="1" tooltips="1" connect="1" arrows="1" fold="1" page="1" pageScale="1" pageWidth="827" pageHeight="1169" math="0" shadow="0">
      <root>
        <mxCell id="0" />
        <mxCell id="1" parent="0" />
        <mxCell id="9zh-3gdV_erlPOyqT3H7-25" style="edgeStyle=orthogonalEdgeStyle;rounded=0;orthogonalLoop=1;jettySize=auto;html=1;exitX=0.5;exitY=1;exitDx=0;exitDy=0;entryX=0.5;entryY=0;entryDx=0;entryDy=0;" edge="1" parent="1" source="9zh-3gdV_erlPOyqT3H7-3" target="9zh-3gdV_erlPOyqT3H7-6">
          <mxGeometry relative="1" as="geometry" />
        </mxCell>
        <mxCell id="9zh-3gdV_erlPOyqT3H7-3" value="&lt;font style=&quot;font-size: 14px;&quot;&gt;Start&lt;/font&gt;" style="ellipse;whiteSpace=wrap;html=1;" vertex="1" parent="1">
          <mxGeometry x="180.63" y="60" width="150" height="80" as="geometry" />
        </mxCell>
        <mxCell id="9zh-3gdV_erlPOyqT3H7-19" style="edgeStyle=orthogonalEdgeStyle;rounded=0;orthogonalLoop=1;jettySize=auto;html=1;exitX=0.5;exitY=1;exitDx=0;exitDy=0;entryX=0.5;entryY=0;entryDx=0;entryDy=0;" edge="1" parent="1" source="9zh-3gdV_erlPOyqT3H7-6" target="9zh-3gdV_erlPOyqT3H7-8">
          <mxGeometry relative="1" as="geometry" />
        </mxCell>
        <mxCell id="9zh-3gdV_erlPOyqT3H7-6" value="&lt;font style=&quot;font-size: 14px;&quot;&gt;int[] array&lt;br&gt;int[] newArray&lt;/font&gt;" style="shape=parallelogram;perimeter=parallelogramPerimeter;whiteSpace=wrap;html=1;fixedSize=1;" vertex="1" parent="1">
          <mxGeometry x="180.01" y="180" width="151.25" height="70" as="geometry" />
        </mxCell>
        <mxCell id="9zh-3gdV_erlPOyqT3H7-16" style="edgeStyle=orthogonalEdgeStyle;rounded=0;orthogonalLoop=1;jettySize=auto;html=1;exitX=0.5;exitY=1;exitDx=0;exitDy=0;entryX=0.5;entryY=0;entryDx=0;entryDy=0;" edge="1" parent="1" source="9zh-3gdV_erlPOyqT3H7-8" target="9zh-3gdV_erlPOyqT3H7-10">
          <mxGeometry relative="1" as="geometry" />
        </mxCell>
        <mxCell id="9zh-3gdV_erlPOyqT3H7-28" style="edgeStyle=orthogonalEdgeStyle;rounded=0;orthogonalLoop=1;jettySize=auto;html=1;exitX=1;exitY=0.5;exitDx=0;exitDy=0;entryX=0;entryY=0.5;entryDx=0;entryDy=0;" edge="1" parent="1" source="9zh-3gdV_erlPOyqT3H7-8" target="9zh-3gdV_erlPOyqT3H7-27">
          <mxGeometry relative="1" as="geometry" />
        </mxCell>
        <mxCell id="9zh-3gdV_erlPOyqT3H7-8" value="&lt;font style=&quot;font-size: 14px;&quot;&gt;for(int i =0; i &amp;lt; array.Length; i++)&lt;/font&gt;" style="rhombus;whiteSpace=wrap;html=1;" vertex="1" parent="1">
          <mxGeometry x="132.98" y="300" width="245.32" height="110" as="geometry" />
        </mxCell>
        <mxCell id="9zh-3gdV_erlPOyqT3H7-17" style="edgeStyle=orthogonalEdgeStyle;rounded=0;orthogonalLoop=1;jettySize=auto;html=1;exitX=0.5;exitY=1;exitDx=0;exitDy=0;entryX=0.5;entryY=0;entryDx=0;entryDy=0;" edge="1" parent="1" source="9zh-3gdV_erlPOyqT3H7-10" target="9zh-3gdV_erlPOyqT3H7-14">
          <mxGeometry relative="1" as="geometry" />
        </mxCell>
        <mxCell id="9zh-3gdV_erlPOyqT3H7-23" style="edgeStyle=orthogonalEdgeStyle;rounded=0;orthogonalLoop=1;jettySize=auto;html=1;exitX=0;exitY=0.5;exitDx=0;exitDy=0;entryX=0;entryY=0.5;entryDx=0;entryDy=0;" edge="1" parent="1" source="9zh-3gdV_erlPOyqT3H7-10" target="9zh-3gdV_erlPOyqT3H7-8">
          <mxGeometry relative="1" as="geometry">
            <Array as="points">
              <mxPoint x="120" y="510" />
              <mxPoint x="120" y="355" />
            </Array>
          </mxGeometry>
        </mxCell>
        <mxCell id="9zh-3gdV_erlPOyqT3H7-10" value="&lt;font style=&quot;font-size: 14px;&quot;&gt;if (array[i].Length &amp;lt;= 3)&lt;/font&gt;" style="rhombus;whiteSpace=wrap;html=1;" vertex="1" parent="1">
          <mxGeometry x="153.91" y="470" width="203.44" height="80" as="geometry" />
        </mxCell>
        <mxCell id="9zh-3gdV_erlPOyqT3H7-18" style="edgeStyle=orthogonalEdgeStyle;rounded=0;orthogonalLoop=1;jettySize=auto;html=1;exitX=0;exitY=0.5;exitDx=0;exitDy=0;" edge="1" parent="1" source="9zh-3gdV_erlPOyqT3H7-14">
          <mxGeometry relative="1" as="geometry">
            <mxPoint x="256" y="280" as="targetPoint" />
            <Array as="points">
              <mxPoint x="80" y="630" />
              <mxPoint x="80" y="280" />
            </Array>
          </mxGeometry>
        </mxCell>
        <mxCell id="9zh-3gdV_erlPOyqT3H7-14" value="&lt;font style=&quot;font-size: 14px;&quot;&gt;newArray[i] = array[i]&lt;/font&gt;" style="rounded=0;whiteSpace=wrap;html=1;" vertex="1" parent="1">
          <mxGeometry x="168.45999999999998" y="600" width="174.36" height="60" as="geometry" />
        </mxCell>
        <mxCell id="9zh-3gdV_erlPOyqT3H7-21" value="Yes" style="text;html=1;align=center;verticalAlign=middle;resizable=0;points=[];autosize=1;strokeColor=none;fillColor=none;" vertex="1" parent="1">
          <mxGeometry x="220" y="555" width="40" height="30" as="geometry" />
        </mxCell>
        <mxCell id="9zh-3gdV_erlPOyqT3H7-24" value="No" style="text;html=1;align=center;verticalAlign=middle;resizable=0;points=[];autosize=1;strokeColor=none;fillColor=none;" vertex="1" parent="1">
          <mxGeometry x="120" y="480" width="40" height="30" as="geometry" />
        </mxCell>
        <mxCell id="9zh-3gdV_erlPOyqT3H7-27" value="End" style="ellipse;whiteSpace=wrap;html=1;" vertex="1" parent="1">
          <mxGeometry x="420" y="315" width="120" height="80" as="geometry" />
        </mxCell>
      </root>
    </mxGraphModel>
  </diagram>
</mxfile>
